<svg width="260" height="191" viewBox="0 0 260 191" fill="none" xmlns="http://www.w3.org/2000/svg">
<g clip-path="url(#clip0_112_474)">
<path d="M0 98.1472L1.31585 98.4057L1.31041 98.4351L0 98.1472Z" fill="white"/>
<path d="M3.97503 98.9276L6.63396 99.4475L6.6081 99.5757L3.95801 99.0095L3.97503 98.9276Z" fill="white"/>
<path d="M9.29448 99.9639L11.9548 100.48L11.9126 100.69L9.25977 100.137L9.29448 99.9639Z" fill="white"/>
<path d="M14.6135 100.991L17.2731 101.5L17.2173 101.781L14.5645 101.239L14.6135 100.991Z" fill="white"/>
<path d="M19.9336 102.004L22.5939 102.507L22.5279 102.848L19.873 102.318L19.9336 102.004Z" fill="white"/>
<path d="M25.255 103.004L27.918 103.497L27.8445 103.889L25.1855 103.372L25.255 103.004Z" fill="white"/>
<path d="M30.5821 103.986L33.2485 104.468L33.1689 104.901L30.5059 104.4L30.5821 103.986Z" fill="white"/>
<path d="M35.9153 104.943L38.5844 105.41L38.5014 105.877L35.835 105.394L35.9153 104.943Z" fill="white"/>
<path d="M41.2529 105.866L43.9254 106.313L43.8424 106.806L41.1719 106.349L41.2529 105.866Z" fill="white"/>
<path d="M46.5971 106.742L49.2758 107.154L49.1962 107.668L46.5195 107.248L46.5971 106.742Z" fill="white"/>
<path d="M51.9532 107.54C51.9532 107.54 52.6244 107.63 53.2963 107.719C53.9668 107.803 54.6373 107.887 54.6373 107.887L54.5734 108.415C54.5734 108.415 53.8994 108.329 53.2262 108.243C52.555 108.152 51.8838 108.06 51.8838 108.06L51.9532 107.54Z" fill="white"/>
<path d="M57.3213 108.174C57.3213 108.174 57.4901 108.188 57.7427 108.21C57.8686 108.219 58.015 108.232 58.1722 108.243C58.3295 108.254 58.4976 108.266 58.6651 108.275C58.7488 108.281 58.8325 108.286 58.9156 108.29C58.9979 108.294 59.0789 108.298 59.1579 108.302C59.2362 108.305 59.3124 108.308 59.3846 108.311C59.4567 108.314 59.5241 108.315 59.5875 108.317C59.6501 108.318 59.7079 108.32 59.7583 108.321C59.8094 108.322 59.8536 108.322 59.8897 108.322C59.9625 108.323 60.0041 108.324 60.0041 108.324L60.002 108.86C60.002 108.86 59.9591 108.859 59.8836 108.859C59.8461 108.858 59.8005 108.857 59.7481 108.857C59.6957 108.856 59.6371 108.854 59.5725 108.853C59.5085 108.85 59.4384 108.85 59.3649 108.846C59.2913 108.844 59.2137 108.84 59.1341 108.837C59.0544 108.833 58.9714 108.829 58.8877 108.825C58.8039 108.82 58.7182 108.816 58.6337 108.81C58.4636 108.8 58.2934 108.788 58.1341 108.777C57.9748 108.766 57.8257 108.753 57.6984 108.743C57.4452 108.722 57.2764 108.707 57.2764 108.707L57.3213 108.174Z" fill="white"/>
<path d="M62.6846 108.188C62.6846 108.188 62.8534 108.173 63.1066 108.151C63.1699 108.145 63.2387 108.139 63.3108 108.132C63.383 108.125 63.4586 108.118 63.5375 108.11C63.6158 108.103 63.6975 108.095 63.7799 108.086C63.8622 108.078 63.946 108.07 64.0304 108.061C64.1985 108.043 64.366 108.026 64.5239 108.009C64.6812 107.993 64.8282 107.976 64.9541 107.962C65.206 107.934 65.3741 107.915 65.3741 107.915L65.4354 108.446C65.4354 108.446 65.2666 108.465 65.014 108.494C64.8874 108.508 64.7397 108.525 64.5818 108.541C64.4232 108.558 64.2543 108.576 64.0855 108.594C64.0011 108.602 63.916 108.611 63.833 108.619C63.7499 108.627 63.6675 108.636 63.5879 108.643C63.5083 108.651 63.432 108.658 63.3592 108.666C63.287 108.672 63.2183 108.679 63.155 108.684C62.9017 108.707 62.7336 108.722 62.7336 108.722L62.6846 108.188Z" fill="white"/>
<path d="M68.0566 107.582C68.0566 107.582 68.7278 107.491 69.399 107.4C70.0689 107.306 70.7387 107.212 70.7387 107.212L70.8136 107.734C70.8136 107.734 70.1417 107.829 69.4705 107.925C68.7993 108.017 68.1281 108.109 68.1281 108.109L68.0566 107.582Z" fill="white"/>
<path d="M73.4248 106.818L76.1014 106.406L76.1797 106.913L73.5045 107.332L73.4248 106.818Z" fill="white"/>
<path d="M78.7725 105.982L81.4443 105.546L81.524 106.03L78.8535 106.477L78.7725 105.982Z" fill="white"/>
<path d="M84.1143 105.102L86.7848 104.649L86.8624 105.103L84.1953 105.571L84.1143 105.102Z" fill="white"/>
<path d="M89.4531 104.19L92.1223 103.726L92.1958 104.142L89.53 104.626L89.4531 104.19Z" fill="white"/>
<path d="M94.79 103.256L97.4585 102.783L97.5252 103.153L94.8615 103.651L94.79 103.256Z" fill="white"/>
<path d="M100.125 102.306L102.792 101.825L102.85 102.141L100.189 102.65L100.125 102.306Z" fill="white"/>
<path d="M105.458 101.342L108.124 100.856L108.171 101.106L105.511 101.626L105.458 101.342Z" fill="white"/>
<path d="M110.789 100.368L113.454 99.8773L113.487 100.051L110.829 100.58L110.789 100.368Z" fill="white"/>
<path d="M116.118 99.3854L118.783 98.8908L118.798 98.9734L116.143 99.5143L116.118 99.3854Z" fill="white"/>
<path d="M121.46 98.3928L122.779 98.1472L121.466 98.4221L121.46 98.3928Z" fill="white"/>
<path d="M124.286 71.8757C121.951 71.8757 119.618 70.9833 117.837 69.1986L97.5901 48.9081C94.0285 45.3388 94.0285 39.5515 97.5901 35.9822C101.152 32.4128 106.926 32.4128 110.488 35.9822L124.286 49.81L169.274 4.72367C172.835 1.15431 178.61 1.15431 182.172 4.72367C185.733 8.29303 185.733 14.0803 182.172 17.6496L130.734 69.1986C128.954 70.9833 126.62 71.8757 124.286 71.8757Z" fill="#939598"/>
<path d="M121.563 69.829C119.229 69.829 116.895 68.9367 115.114 67.152L94.8675 46.8615C91.3059 43.2921 91.3059 37.5049 94.8675 33.9355C98.4291 30.3662 104.204 30.3662 107.765 33.9355L121.563 47.7634L166.551 2.67702C170.113 -0.89234 175.887 -0.89234 179.449 2.67702C183.011 6.24638 183.011 12.0336 179.449 15.603L128.012 67.152C126.232 68.9367 123.897 69.829 121.563 69.829Z" fill="#ED1C24"/>
<path d="M31.3607 95.5964C26.8713 96.2957 22.7066 97.1866 18.8693 98.27C18.0606 98.562 17.4323 98.708 16.9837 98.708C16.467 98.708 16.0293 98.4726 15.6699 97.9998C15.4452 97.729 15.3336 97.4145 15.3336 97.0543C15.3336 96.0862 16.03 95.3774 17.4234 94.9264C21.1538 93.7974 25.5466 92.759 30.6031 91.8108C36.94 90.6592 43.0298 90.0827 48.8732 90.0827C50.8508 90.0827 52.1768 90.2076 52.8514 90.4545C53.4797 90.6803 53.7949 91.1081 53.7949 91.7391C53.7949 92.7986 53.0196 93.4194 51.4709 93.5995C50.1231 93.7346 48.0904 93.8363 45.3743 93.9031C39.9611 94.0846 36.2559 94.4223 34.2579 94.9189C34.8195 95.1448 35.1007 95.4947 35.1007 95.9682C35.1007 96.4648 34.7412 97.2433 34.0224 98.3027C29.7549 104.558 25.6793 111.655 21.7944 119.597C18.8298 125.626 16.6631 130.979 15.2934 135.659C14.9782 137.076 14.4405 137.785 13.6767 137.785C12.9803 137.785 12.3962 137.424 11.9252 136.705C11.61 136.233 11.4541 135.738 11.4541 135.22C11.4541 133.15 13.4092 128.112 17.32 120.102C19.8346 114.952 22.1572 110.61 24.29 107.077C25.1429 105.639 27.1967 102.296 30.452 97.0522L31.3607 95.5964Z" fill="#939598"/>
<path d="M43.9994 120.198C45.6523 118.466 47.3051 117.016 48.9579 115.847C51.0791 114.363 52.5978 113.62 53.5147 113.62C53.8932 113.62 54.2621 113.777 54.6195 114.091C55.0218 114.452 55.2227 114.866 55.2227 115.338C55.2227 115.944 54.7366 116.888 53.7666 118.167C51.8912 120.636 50.4684 122.88 49.4984 124.902C48.64 126.653 48.2111 127.843 48.2111 128.47C48.2111 129.077 48.5025 129.38 49.0866 129.38C50.2989 129.38 52.3411 127.22 55.2152 122.901C55.7979 122.023 56.3254 121.584 56.7979 121.584C57.2689 121.584 57.5052 121.855 57.5052 122.395C57.5052 123.272 56.6522 124.947 54.9463 127.422C53.4637 129.577 51.915 131.227 50.2989 132.367C49.1546 133.15 48.124 133.541 47.2091 133.541C46.252 133.541 45.5624 133.128 45.1403 132.3C44.8721 131.785 44.7394 131.214 44.7394 130.587C44.7394 128.595 45.4487 126.323 46.8701 123.771C47.2084 123.168 48.222 121.444 49.913 118.601C45.3241 120.909 41.444 125.893 38.2724 133.554C37.9811 134.43 37.5332 134.868 36.9266 134.868C36.5012 134.868 36.1547 134.722 35.8844 134.428C35.6162 134.114 35.4814 133.732 35.4814 133.282C35.4814 132.54 36.2003 130.438 37.6366 126.976C40.3072 120.547 42.7993 115.107 45.1118 110.656C47.4242 106.157 49.994 101.489 52.8231 96.6518C53.4963 95.4825 54.0239 94.6945 54.4058 94.2893C54.7863 93.884 55.19 93.6814 55.6154 93.6814C56.0184 93.6814 56.3656 93.8956 56.657 94.3234C56.8802 94.6392 56.9932 94.9981 56.9932 95.4033C56.9932 96.033 56.6345 96.8762 55.9177 97.9337C53.4977 101.691 51.0899 105.819 48.6931 110.318C46.1403 115.145 44.576 118.439 43.9994 120.198Z" fill="#939598"/>
<path d="M67.2397 128.421C66.4984 129.726 65.7687 130.827 65.0498 131.727C63.6353 133.482 62.2309 134.359 60.8388 134.359C59.6264 134.359 58.6836 133.786 58.0097 132.638C57.5829 131.896 57.3691 131.019 57.3691 130.006C57.3691 127.51 58.1554 124.753 59.7272 121.738C61.4787 118.387 63.5903 115.81 66.0614 114.01C67.6781 112.841 69.2384 112.255 70.7448 112.255C71.687 112.255 72.4732 112.549 73.1029 113.134C73.6414 113.652 73.9116 114.237 73.9116 114.889C73.9116 115.385 73.7203 116.072 73.3384 116.949C73.6754 117.423 73.8449 117.838 73.8449 118.198C73.8449 118.672 73.529 119.447 72.8994 120.529C72.2465 121.632 71.5944 123.095 70.9423 124.917C70.2445 126.854 69.8953 128.408 69.8953 129.578C69.8953 130.523 70.1751 131.299 70.7367 131.907C70.8939 132.064 71.3534 132.324 72.1172 132.684C72.6774 132.955 72.9586 133.427 72.9586 134.101C72.9586 134.53 72.8013 134.878 72.4875 135.148C72.1505 135.441 71.7578 135.587 71.3092 135.587C70.0975 135.587 69.0553 135.044 68.1812 133.954C67.463 133.078 67.105 131.976 67.105 130.647C67.1036 130.198 67.1485 129.456 67.2397 128.421ZM71.4834 117.321C71.2132 116.826 70.9218 116.462 70.6066 116.225C70.2915 115.99 69.9538 115.871 69.5937 115.871C67.881 115.871 66.0219 117.367 64.0158 120.355C61.8075 123.66 60.7034 126.459 60.7034 128.751C60.7034 129.314 60.8096 129.74 61.0247 130.032C61.2384 130.324 61.5597 130.47 61.9886 130.47C63.0696 130.47 64.3317 129.324 65.7741 127.031C66.5849 125.772 67.5876 123.917 68.7823 121.467C69.5713 119.872 70.1458 118.815 70.5066 118.297C70.6863 118.03 71.0117 117.704 71.4834 117.321Z" fill="#939598"/>
<path d="M81.4089 122.412C81.7002 122.143 81.9814 121.873 82.2516 121.602C86.9378 117.008 90.078 114.711 91.6689 114.711C92.5429 114.711 92.9806 115.194 92.9806 116.158C92.9806 116.83 92.5872 117.627 91.8003 118.545C87.5042 123.556 85.3564 127.972 85.3564 131.796C85.3564 133.034 85.6927 134.215 86.366 135.34C86.6811 135.857 86.8384 136.262 86.8384 136.554C86.8384 136.823 86.7036 137.083 86.434 137.33C86.1413 137.646 85.7935 137.804 85.3898 137.804C84.4688 137.804 83.6941 137.218 83.0665 136.048C82.4599 134.946 82.157 133.608 82.157 132.033C82.157 128.997 83.3143 125.634 85.6287 121.944C82.5546 123.901 79.6955 127.365 77.0515 132.337C76.3837 133.529 75.6717 134.125 74.9147 134.125C74.5362 134.125 74.2244 133.991 73.9801 133.72C73.6683 133.406 73.5117 133 73.5117 132.506C73.5117 131.291 74.9018 128.107 77.6798 122.956C79.17 120.175 80.3442 118.157 81.204 116.901C82.0495 115.669 82.7731 115.053 83.3742 115.053C83.6635 115.053 83.9412 115.188 84.2094 115.458C84.5198 115.774 84.6764 116.133 84.6764 116.538C84.6764 117.034 84.351 117.743 83.7002 118.666C82.7554 120.038 81.9916 121.287 81.4089 122.412Z" fill="#939598"/>
<path d="M106.655 119.581C105.192 123.182 104.46 125.922 104.46 127.8C104.46 128.717 104.64 129.477 105 130.081C105.45 130.842 106.047 131.222 106.791 131.222C108.322 131.222 110.09 130.198 112.094 128.15C113.423 126.845 114.537 125.518 115.439 124.168C116.023 123.268 116.575 122.818 117.095 122.818C117.612 122.818 117.872 123.077 117.872 123.595C117.872 124.449 116.833 126.205 114.759 128.859C111.692 132.799 108.716 134.769 105.829 134.769C104.092 134.769 102.862 133.935 102.141 132.264C101.6 131.027 101.33 129.723 101.33 128.35C101.33 127.203 101.599 125.505 102.139 123.254C100.69 124.469 98.5 127.439 95.5708 132.163C94.7941 133.446 94.0848 134.086 93.4401 134.086C93.1079 134.086 92.8186 133.94 92.5742 133.648C92.3305 133.334 92.208 133.019 92.208 132.704C92.208 131.804 93.3863 128.803 95.7424 123.698C99.8928 114.771 104.335 107.26 109.07 101.166C111.628 97.8381 113.927 95.4094 115.97 93.8799C117.81 92.4855 119.28 91.7882 120.379 91.7882C120.873 91.7882 121.31 91.9909 121.692 92.3961C122.185 92.8921 122.432 93.4992 122.432 94.219C122.432 96.1312 121.43 98.5838 119.426 101.577C117.331 104.66 113.779 108.385 108.767 112.749C105.961 115.179 103.435 117.092 101.19 118.485C100.899 119.071 100.079 120.78 98.7321 123.615C101.538 120.578 103.76 118.485 105.399 117.339C106.454 116.619 107.88 115.866 109.675 115.078C110.887 114.561 111.763 114.301 112.302 114.301C112.593 114.301 112.851 114.415 113.077 114.643C113.324 114.847 113.447 115.12 113.447 115.461C113.447 116.212 112.94 116.735 111.927 117.03C110.213 117.546 108.457 118.395 106.655 119.581ZM103.808 113.756C107.488 111.324 110.923 108.226 114.111 104.463C115.704 102.593 116.983 100.792 117.949 99.0566C118.622 97.8402 118.959 96.9724 118.959 96.4546C118.959 95.9368 118.723 95.6776 118.252 95.6776C116.995 95.6776 114.828 97.6157 111.753 101.49C109.217 104.711 106.568 108.801 103.808 113.756Z" fill="#939598"/>
<path d="M157.936 111.959C156.162 113.692 154.007 115.693 151.469 117.966C150.031 119.249 148.752 120.284 147.629 121.07C146.461 121.925 145.237 122.353 143.959 122.353C142.678 122.353 141.702 121.679 141.028 120.331C140.669 119.612 140.489 118.836 140.489 118.005C140.489 115.174 141.633 111.658 143.922 107.456C145.962 103.704 148.778 100.064 152.368 96.5351C155.934 93.008 158.459 91.2438 159.939 91.2438C160.298 91.2438 160.612 91.3789 160.881 91.6491C161.128 91.9185 161.252 92.2446 161.252 92.6267C161.252 93.2564 161.027 93.7735 160.579 94.1787C160.22 94.4946 159.693 94.865 158.998 95.2914C157.742 96.078 156.184 97.3831 154.324 99.2033C151.364 102.126 149.01 105.286 147.261 108.68C145.333 112.436 144.369 115.089 144.369 116.639C144.369 116.976 144.47 117.28 144.672 117.549C144.941 117.932 145.301 118.123 145.75 118.123C146.603 118.123 148.062 117.303 150.128 115.662C152.597 113.752 154.594 111.965 156.122 110.302C160.565 105.494 163.899 101.594 166.122 98.6056C168.255 95.7076 170.05 93.3928 171.51 91.662C172.744 90.2014 173.699 89.4701 174.372 89.4701C174.821 89.4701 175.202 89.6952 175.518 90.1448C175.765 90.505 175.888 90.9211 175.888 91.3919C175.888 92.1785 175.461 93.1233 174.608 94.2244C168.522 102.228 164.492 107.678 162.516 110.577C159.529 115.029 156.936 119.647 154.736 124.436C152.198 129.875 150.659 133.505 150.122 135.326C149.605 137.012 149.123 138.079 148.674 138.529C148.224 138.979 147.719 139.204 147.158 139.204C146.101 139.204 145.574 138.696 145.574 137.684C145.574 136.581 146.281 134.33 147.695 130.931C149.357 126.902 151.39 122.895 153.792 118.911C155.836 115.536 157.218 113.219 157.936 111.959Z" fill="#939598"/>
<path d="M176.081 112.187C177.922 112.187 178.843 113.314 178.843 115.568C178.843 118.565 177.461 122.361 174.7 126.957C171.69 131.937 168.782 134.427 165.976 134.427C164.674 134.427 163.719 133.82 163.113 132.603C162.799 131.995 162.642 131.263 162.642 130.406C162.642 127.521 163.63 124.389 165.606 121.01C167.446 117.878 169.614 115.444 172.107 113.709C173.566 112.695 174.89 112.187 176.081 112.187ZM172.58 124.963C172.018 124.513 171.737 124.164 171.737 123.915C171.737 123.735 172.096 123.239 172.814 122.428C174.836 120.153 175.847 118.316 175.847 116.919C175.847 116.739 175.791 116.559 175.679 116.379C175.498 116.041 175.217 115.871 174.836 115.871C174.117 115.871 173.061 116.57 171.669 117.967C169.871 119.769 168.501 121.628 167.559 123.543C166.458 125.729 165.908 127.543 165.908 128.985C165.908 129.369 166.008 129.707 166.211 129.999C166.502 130.404 166.873 130.607 167.322 130.607C168.401 130.607 169.557 129.796 170.793 128.174C171.331 127.498 171.769 126.8 172.106 126.078C172.443 125.357 172.601 124.986 172.58 124.963Z" fill="#939598"/>
<path d="M188.491 128.824C187.523 130.175 186.668 131.254 185.925 132.063C184.62 133.503 183.327 134.223 182.044 134.223C180.942 134.223 180.087 133.728 179.478 132.738C179.051 132.04 178.837 131.208 178.837 130.24C178.837 127.339 180.079 124.009 182.563 120.25C183.714 118.495 184.855 117.157 185.985 116.234C186.851 115.492 187.563 115.12 188.119 115.12C188.43 115.12 188.719 115.255 188.986 115.525C189.209 115.773 189.32 116.02 189.32 116.268C189.32 116.696 188.902 117.393 188.067 118.36C186.192 120.587 184.769 122.633 183.797 124.5C182.668 126.682 182.104 128.392 182.104 129.628C182.104 129.944 182.177 130.185 182.325 130.354C182.473 130.522 182.684 130.606 182.957 130.606C184.116 130.606 185.731 128.962 187.801 125.672C188.856 123.96 189.764 122.067 190.528 119.994C190.932 118.867 191.46 117.864 192.11 116.986C192.739 116.197 193.356 115.803 193.962 115.803C194.298 115.803 194.601 115.95 194.872 116.243C195.163 116.56 195.31 116.91 195.31 117.294C195.31 118.107 194.535 119.938 192.984 122.784C191.929 124.75 191.401 126.387 191.401 127.697C191.401 129.098 191.771 130.296 192.513 131.29C192.715 131.559 193.332 131.984 194.364 132.565C194.858 132.857 195.106 133.327 195.106 133.975C195.106 134.378 194.931 134.724 194.582 135.016C194.233 135.307 193.811 135.451 193.317 135.451C192.192 135.451 191.167 134.997 190.245 134.089C189.412 133.279 188.883 132.109 188.658 130.58C188.614 130.377 188.558 129.792 188.491 128.824Z" fill="#939598"/>
<path d="M200.538 131.562C201.034 131.562 201.45 131.787 201.788 132.235C202.013 132.527 202.126 132.896 202.126 133.343C202.126 134.397 201.833 135.507 201.247 136.673C200.639 137.905 199.839 138.521 198.848 138.521C197.812 138.521 197.293 137.938 197.293 136.772C197.293 135.607 197.654 134.42 198.375 133.209C199.027 132.111 199.749 131.562 200.538 131.562ZM222.434 91.4478C222.926 91.4478 223.306 91.6504 223.575 92.0557C223.798 92.3934 223.91 92.7761 223.91 93.2038C223.91 94.1269 223.238 95.8604 221.897 98.4037C216.375 108.782 211.391 117.448 206.946 124.405C206.228 125.553 205.778 126.319 205.6 126.701C205.015 127.805 204.407 128.356 203.779 128.356C203.329 128.356 202.936 128.097 202.599 127.579C202.307 127.152 202.161 126.69 202.161 126.195C202.161 125.565 202.486 124.687 203.137 123.561C203.316 123.247 204.102 122.02 205.495 119.881C207.269 116.887 209.033 113.927 210.784 111C211.368 109.988 213.12 106.791 216.041 101.41C217.074 99.5184 217.894 98.0339 218.5 96.9526C219.219 95.6694 219.903 94.3411 220.556 92.9678C221.047 91.954 221.673 91.4478 222.434 91.4478Z" fill="#939598"/>
<path d="M218.584 131.562C219.079 131.562 219.495 131.787 219.834 132.235C220.059 132.527 220.172 132.896 220.172 133.343C220.172 134.397 219.879 135.507 219.293 136.673C218.685 137.905 217.885 138.521 216.894 138.521C215.858 138.521 215.339 137.938 215.339 136.772C215.339 135.607 215.7 134.42 216.421 133.209C217.073 132.111 217.795 131.562 218.584 131.562ZM240.48 91.4478C240.972 91.4478 241.352 91.6504 241.621 92.0557C241.844 92.3934 241.955 92.7761 241.955 93.2038C241.955 94.1269 241.284 95.8604 239.943 98.4037C234.42 108.782 229.437 117.448 224.992 124.405C224.273 125.553 223.824 126.319 223.646 126.701C223.061 127.805 222.453 128.356 221.825 128.356C221.375 128.356 220.981 128.097 220.645 127.579C220.352 127.152 220.207 126.69 220.207 126.195C220.207 125.565 220.532 124.687 221.183 123.561C221.362 123.247 222.148 122.02 223.541 119.881C225.315 116.887 227.079 113.927 228.83 111C229.414 109.988 231.166 106.791 234.087 101.41C235.12 99.5184 235.94 98.0339 236.546 96.9526C237.265 95.6694 237.949 94.3411 238.602 92.9678C239.093 91.954 239.719 91.4478 240.48 91.4478Z" fill="#939598"/>
<path d="M236.629 131.562C237.124 131.562 237.54 131.787 237.879 132.235C238.104 132.527 238.217 132.896 238.217 133.343C238.217 134.397 237.924 135.507 237.338 136.673C236.73 137.905 235.93 138.521 234.939 138.521C233.903 138.521 233.384 137.938 233.384 136.772C233.384 135.607 233.745 134.42 234.465 133.209C235.118 132.111 235.84 131.562 236.629 131.562ZM258.525 91.4478C259.017 91.4478 259.397 91.6504 259.665 92.0557C259.889 92.3934 260 92.7761 260 93.2038C260 94.1269 259.329 95.8604 257.988 98.4037C252.465 108.782 247.482 117.448 243.037 124.405C242.318 125.553 241.869 126.319 241.691 126.701C241.106 127.805 240.498 128.356 239.87 128.356C239.42 128.356 239.026 128.097 238.69 127.579C238.397 127.152 238.252 126.69 238.252 126.195C238.252 125.565 238.577 124.687 239.228 123.561C239.407 123.247 240.192 122.02 241.586 119.881C243.36 116.887 245.124 113.927 246.875 111C247.459 109.988 249.211 106.791 252.132 101.41C253.164 99.5184 253.985 98.0339 254.591 96.9526C255.309 95.6694 255.994 94.3411 256.646 92.9678C257.138 91.954 257.765 91.4478 258.525 91.4478Z" fill="#939598"/>
<path d="M28.2514 92.4807C23.7619 93.18 19.5972 94.0709 15.7599 95.1543C14.9512 95.4463 14.3229 95.5923 13.8743 95.5923C13.3576 95.5923 12.9199 95.3569 12.5605 94.8841C12.3359 94.6133 12.2242 94.2988 12.2242 93.9386C12.2242 92.9705 12.9206 92.2617 14.3141 91.8108C18.0445 90.6817 22.4372 89.6433 27.4937 88.6951C33.8306 87.5435 39.9205 86.967 45.7639 86.967C47.7414 86.967 49.0675 87.0919 49.7421 87.3388C50.3704 87.5646 50.6856 87.9924 50.6856 88.6234C50.6856 89.6829 49.9102 90.3037 48.3615 90.4838C47.0137 90.6189 44.981 90.7206 42.2649 90.7874C36.8517 90.9689 33.1465 91.3066 31.1486 91.8032C31.7102 92.0291 31.9913 92.379 31.9913 92.8525C31.9913 93.3492 31.6319 94.1276 30.913 95.187C26.6455 101.442 22.57 108.539 18.685 116.481C15.7205 122.511 13.5537 127.863 12.1841 132.543C11.8689 133.96 11.3311 134.669 10.5673 134.669C9.87093 134.669 9.28686 134.309 8.81579 133.589C8.50061 133.118 8.34473 132.622 8.34473 132.104C8.34473 130.035 10.2998 124.996 14.2106 116.987C16.7252 111.836 19.0479 107.494 21.1806 103.962C22.0336 102.523 24.0873 99.1807 27.3426 93.9365L28.2514 92.4807Z" fill="black"/>
<path d="M40.8901 117.082C42.5429 115.351 44.1957 113.9 45.8485 112.731C47.9697 111.247 49.4884 110.504 50.4053 110.504C50.7838 110.504 51.1528 110.662 51.5102 110.976C51.9125 111.336 52.1133 111.751 52.1133 112.222C52.1133 112.828 51.6272 113.772 50.6572 115.051C48.7818 117.52 47.3591 119.765 46.389 121.786C45.5306 123.537 45.1018 124.727 45.1018 125.355C45.1018 125.961 45.3931 126.264 45.9772 126.264C47.1896 126.264 49.2318 124.104 52.1058 119.785C52.6885 118.908 53.2161 118.468 53.6885 118.468C54.1596 118.468 54.3958 118.739 54.3958 119.279C54.3958 120.156 53.5428 121.832 51.8369 124.306C50.3543 126.461 48.8056 128.111 47.1896 129.251C46.0452 130.034 45.0146 130.426 44.0997 130.426C43.1426 130.426 42.453 130.012 42.031 129.184C41.7628 128.669 41.63 128.098 41.63 127.471C41.63 125.48 42.3393 123.207 43.7607 120.655C44.099 120.052 45.1126 118.328 46.8036 115.485C42.2148 117.793 38.3346 122.777 35.1631 130.439C34.8717 131.315 34.4238 131.752 33.8173 131.752C33.3918 131.752 33.0453 131.606 32.7751 131.312C32.5069 130.998 32.3721 130.617 32.3721 130.166C32.3721 129.424 33.0909 127.322 34.5273 123.86C37.1978 117.431 39.6899 111.991 42.0024 107.54C44.3148 103.041 46.8846 98.3737 49.7137 93.5361C50.387 92.3668 50.9145 91.5788 51.2964 91.1736C51.6769 90.7683 52.0806 90.5657 52.5061 90.5657C52.9091 90.5657 53.2562 90.7799 53.5476 91.2077C53.7709 91.5235 53.8839 91.8824 53.8839 92.2876C53.8839 92.9173 53.5251 93.7605 52.8083 94.818C50.3883 98.5756 47.9806 102.704 45.5837 107.202C43.031 112.03 41.4666 115.323 40.8901 117.082Z" fill="black"/>
<path d="M64.1304 125.305C63.3891 126.61 62.6593 127.712 61.9405 128.612C60.5259 130.366 59.1215 131.244 57.7295 131.244C56.5171 131.244 55.5743 130.67 54.9003 129.522C54.4735 128.78 54.2598 127.903 54.2598 126.89C54.2598 124.394 55.046 121.637 56.6178 118.623C58.3693 115.271 60.481 112.695 62.952 110.894C64.5688 109.725 66.129 109.14 67.6355 109.14C68.5776 109.14 69.3638 109.433 69.9935 110.018C70.532 110.536 70.8022 111.122 70.8022 111.774C70.8022 112.27 70.6109 112.956 70.2291 113.833C70.566 114.307 70.7355 114.722 70.7355 115.083C70.7355 115.556 70.4197 116.332 69.79 117.413C69.1372 118.516 68.485 119.979 67.8329 121.802C67.1351 123.739 66.7859 125.292 66.7859 126.462C66.7859 127.407 67.0657 128.183 67.6273 128.791C67.7845 128.949 68.244 129.208 69.0078 129.568C69.5681 129.839 69.8492 130.311 69.8492 130.986C69.8492 131.414 69.6919 131.763 69.3781 132.032C69.0412 132.326 68.6484 132.472 68.1998 132.472C66.9881 132.472 65.9459 131.928 65.0718 130.838C64.3537 129.962 63.9956 128.86 63.9956 127.532C63.9942 127.082 64.0392 126.34 64.1304 125.305ZM68.3741 114.205C68.1038 113.711 67.8124 113.346 67.4973 113.11C67.1821 112.874 66.8444 112.755 66.4843 112.755C64.7716 112.755 62.9125 114.251 60.9064 117.24C58.6981 120.544 57.594 123.343 57.594 125.635C57.594 126.198 57.7002 126.624 57.9153 126.916C58.129 127.208 58.4503 127.354 58.8792 127.354C59.9602 127.354 61.2223 126.208 62.6648 123.915C63.4755 122.657 64.4782 120.802 65.6729 118.352C66.4619 116.756 67.0364 115.699 67.3972 115.181C67.5769 114.914 67.9023 114.588 68.3741 114.205Z" fill="black"/>
<path d="M78.2995 119.296C78.5909 119.026 78.872 118.756 79.1423 118.485C83.8284 113.892 86.9686 111.595 88.5595 111.595C89.4336 111.595 89.8713 112.078 89.8713 113.041C89.8713 113.714 89.4778 114.51 88.6909 115.429C84.3948 120.439 82.2471 124.855 82.2471 128.68C82.2471 129.917 82.5834 131.098 83.2566 132.223C83.5718 132.741 83.729 133.146 83.729 133.438C83.729 133.707 83.5942 133.966 83.3247 134.214C83.032 134.53 82.6841 134.687 82.2804 134.687C81.3594 134.687 80.5847 134.102 79.9571 132.932C79.3506 131.83 79.0476 130.492 79.0476 128.917C79.0476 125.881 80.2049 122.517 82.5194 118.827C79.4452 120.784 76.5861 124.249 73.9421 129.22C73.2744 130.413 72.5623 131.009 71.8053 131.009C71.4268 131.009 71.1151 130.874 70.8707 130.604C70.5589 130.289 70.4023 129.884 70.4023 129.389C70.4023 128.174 71.7924 124.991 74.5705 119.84C76.0606 117.058 77.2348 115.041 78.0946 113.785C78.9401 112.553 79.6637 111.937 80.2648 111.937C80.5541 111.937 80.8318 112.072 81.1 112.342C81.4105 112.658 81.567 113.017 81.567 113.422C81.567 113.918 81.2416 114.627 80.5909 115.55C79.646 116.922 78.8822 118.172 78.2995 119.296Z" fill="black"/>
<path d="M103.546 116.465C102.082 120.065 101.35 122.805 101.35 124.683C101.35 125.6 101.53 126.361 101.891 126.965C102.341 127.726 102.938 128.105 103.681 128.105C105.213 128.105 106.981 127.082 108.985 125.034C110.314 123.729 111.428 122.402 112.329 121.051C112.914 120.151 113.466 119.702 113.986 119.702C114.502 119.702 114.762 119.961 114.762 120.478C114.762 121.333 113.724 123.089 111.65 125.743C108.583 129.683 105.606 131.653 102.719 131.653C100.982 131.653 99.7528 130.819 99.0319 129.148C98.4907 127.911 98.2204 126.607 98.2204 125.233C98.2204 124.086 98.4893 122.388 99.0291 120.138C97.5806 121.353 95.3906 124.322 92.4614 129.046C91.6847 130.329 90.9754 130.97 90.3308 130.97C89.9986 130.97 89.7092 130.824 89.4649 130.532C89.2212 130.218 89.0986 129.903 89.0986 129.588C89.0986 128.688 90.277 125.686 92.633 120.581C96.7834 111.655 101.226 104.144 105.96 98.0496C108.519 94.7218 110.818 92.2931 112.86 90.7636C114.7 89.3691 116.171 88.6719 117.27 88.6719C117.764 88.6719 118.201 88.8745 118.582 89.2797C119.076 89.7757 119.323 90.3829 119.323 91.1026C119.323 93.0149 118.32 95.4674 116.316 98.461C114.222 101.544 110.67 105.268 105.657 109.632C102.851 112.063 100.325 113.975 98.0809 115.369C97.7895 115.954 96.9693 117.664 95.6228 120.499C98.4287 117.461 100.651 115.369 102.29 114.222C103.345 113.503 104.77 112.749 106.566 111.961C107.778 111.444 108.653 111.185 109.192 111.185C109.484 111.185 109.741 111.299 109.967 111.526C110.214 111.731 110.337 112.004 110.337 112.345C110.337 113.095 109.83 113.619 108.817 113.914C107.104 114.43 105.348 115.28 103.546 116.465ZM100.699 110.641C104.379 108.208 107.814 105.111 111.001 101.347C112.595 99.4775 113.874 97.6765 114.84 95.9409C115.513 94.7245 115.85 93.8567 115.85 93.3389C115.85 92.8211 115.614 92.5619 115.143 92.5619C113.885 92.5619 111.719 94.5001 108.644 98.3744C106.107 101.596 103.459 105.685 100.699 110.641Z" fill="black"/>
<path d="M154.827 108.844C153.053 110.576 150.897 112.577 148.36 114.851C146.922 116.133 145.643 117.168 144.52 117.955C143.352 118.809 142.128 119.237 140.85 119.237C139.569 119.237 138.592 118.563 137.919 117.215C137.56 116.497 137.38 115.72 137.38 114.889C137.38 112.058 138.524 108.543 140.812 104.34C142.853 100.588 145.668 96.9478 149.259 93.4194C152.825 89.8923 155.349 88.1281 156.83 88.1281C157.188 88.1281 157.502 88.2632 157.772 88.5334C158.019 88.8028 158.142 89.1289 158.142 89.511C158.142 90.1407 157.918 90.6578 157.47 91.063C157.11 91.3789 156.583 91.7493 155.889 92.1757C154.633 92.9623 153.075 94.2674 151.214 96.0876C148.255 99.0102 145.901 102.17 144.152 105.564C142.223 109.32 141.26 111.973 141.26 113.524C141.26 113.861 141.361 114.164 141.563 114.434C141.832 114.816 142.191 115.007 142.641 115.007C143.494 115.007 144.953 114.187 147.018 112.546C149.487 110.636 151.485 108.849 153.012 107.187C157.456 102.378 160.79 98.4787 163.013 95.4899C165.146 92.5919 166.941 90.2771 168.4 88.5463C169.635 87.0857 170.589 86.3544 171.263 86.3544C171.711 86.3544 172.093 86.5795 172.408 87.0291C172.655 87.3893 172.779 87.8054 172.779 88.2762C172.779 89.0628 172.352 90.0076 171.499 91.1087C165.412 99.1118 161.382 104.562 159.407 107.461C156.42 111.913 153.827 116.532 151.626 121.32C149.088 126.759 147.55 130.389 147.012 132.21C146.496 133.897 146.014 134.964 145.564 135.413C145.114 135.863 144.609 136.088 144.048 136.088C142.992 136.088 142.464 135.58 142.464 134.568C142.464 133.466 143.172 131.214 144.586 127.815C146.248 123.786 148.28 119.779 150.683 115.795C152.726 112.421 154.108 110.103 154.827 108.844Z" fill="black"/>
<path d="M172.971 109.072C174.813 109.072 175.734 110.199 175.734 112.452C175.734 115.45 174.352 119.245 171.591 123.842C168.581 128.822 165.672 131.312 162.866 131.312C161.564 131.312 160.609 130.704 160.003 129.487C159.689 128.879 159.532 128.147 159.532 127.29C159.532 124.406 160.521 121.274 162.497 117.894C164.337 114.762 166.505 112.328 168.998 110.593C170.457 109.579 171.781 109.072 172.971 109.072ZM169.47 121.847C168.909 121.397 168.627 121.047 168.627 120.799C168.627 120.619 168.986 120.123 169.705 119.312C171.726 117.037 172.738 115.2 172.738 113.803C172.738 113.623 172.681 113.442 172.57 113.262C172.389 112.925 172.108 112.755 171.727 112.755C171.008 112.755 169.951 113.454 168.559 114.851C166.762 116.653 165.392 118.512 164.449 120.426C163.348 122.613 162.798 124.427 162.798 125.868C162.798 126.252 162.899 126.59 163.101 126.882C163.393 127.288 163.764 127.491 164.213 127.491C165.291 127.491 166.448 126.68 167.683 125.057C168.222 124.381 168.659 123.683 168.997 122.961C169.334 122.242 169.492 121.871 169.47 121.847Z" fill="black"/>
<path d="M185.382 125.708C184.414 127.059 183.559 128.139 182.816 128.947C181.511 130.387 180.218 131.107 178.934 131.107C177.832 131.107 176.977 130.613 176.369 129.622C175.941 128.925 175.728 128.092 175.728 127.124C175.728 124.223 176.97 120.893 179.453 117.134C180.605 115.379 181.745 114.041 182.875 113.118C183.742 112.376 184.454 112.004 185.01 112.004C185.32 112.004 185.61 112.139 185.877 112.41C186.099 112.657 186.211 112.904 186.211 113.152C186.211 113.58 185.793 114.278 184.958 115.244C183.082 117.471 181.659 119.518 180.688 121.384C179.559 123.566 178.994 125.276 178.994 126.512C178.994 126.828 179.068 127.07 179.216 127.238C179.363 127.407 179.574 127.491 179.847 127.491C181.007 127.491 182.621 125.846 184.691 122.556C185.747 120.845 186.655 118.951 187.418 116.878C187.823 115.751 188.35 114.748 189.001 113.87C189.629 113.082 190.247 112.687 190.853 112.687C191.189 112.687 191.492 112.835 191.762 113.127C192.054 113.444 192.201 113.795 192.201 114.179C192.201 114.992 191.425 116.822 189.875 119.668C188.819 121.634 188.292 123.271 188.292 124.582C188.292 125.982 188.662 127.18 189.403 128.174C189.606 128.443 190.222 128.868 191.255 129.449C191.749 129.741 191.996 130.211 191.996 130.859C191.996 131.263 191.822 131.609 191.473 131.9C191.124 132.191 190.702 132.336 190.207 132.336C189.082 132.336 188.058 131.881 187.135 130.973C186.303 130.163 185.774 128.994 185.549 127.464C185.505 127.261 185.448 126.676 185.382 125.708Z" fill="black"/>
<path d="M197.429 128.446C197.924 128.446 198.34 128.672 198.678 129.119C198.904 129.411 199.017 129.78 199.017 130.228C199.017 131.282 198.723 132.392 198.138 133.557C197.529 134.789 196.73 135.405 195.738 135.405C194.702 135.405 194.184 134.822 194.184 133.657C194.184 132.491 194.544 131.304 195.265 130.093C195.918 128.996 196.64 128.446 197.429 128.446ZM219.325 88.3321C219.817 88.3321 220.196 88.5347 220.465 88.94C220.689 89.2777 220.8 89.6604 220.8 90.0881C220.8 91.0112 220.129 92.7447 218.788 95.288C213.265 105.667 208.282 114.333 203.837 121.289C203.118 122.438 202.669 123.203 202.491 123.586C201.906 124.689 201.298 125.24 200.67 125.24C200.22 125.24 199.826 124.981 199.49 124.463C199.197 124.037 199.052 123.575 199.052 123.079C199.052 122.45 199.377 121.571 200.028 120.445C200.207 120.131 200.992 118.904 202.386 116.765C204.16 113.771 205.923 110.811 207.675 107.884C208.259 106.872 210.011 103.675 212.932 98.2939C213.964 96.4028 214.785 94.9182 215.391 93.8369C216.109 92.5537 216.794 91.2254 217.446 89.8521C217.938 88.8383 218.564 88.3321 219.325 88.3321Z" fill="black"/>
<path d="M215.475 128.446C215.97 128.446 216.386 128.672 216.724 129.119C216.95 129.411 217.063 129.78 217.063 130.228C217.063 131.282 216.769 132.392 216.184 133.557C215.575 134.789 214.775 135.405 213.784 135.405C212.748 135.405 212.229 134.822 212.229 133.657C212.229 132.491 212.59 131.304 213.311 130.093C213.964 128.996 214.686 128.446 215.475 128.446ZM237.371 88.3321C237.862 88.3321 238.242 88.5347 238.511 88.94C238.734 89.2777 238.846 89.6604 238.846 90.0881C238.846 91.0112 238.175 92.7447 236.834 95.288C231.311 105.667 226.327 114.333 221.883 121.289C221.164 122.438 220.715 123.203 220.536 123.586C219.952 124.689 219.344 125.24 218.716 125.24C218.266 125.24 217.872 124.981 217.536 124.463C217.243 124.037 217.097 123.575 217.097 123.079C217.097 122.45 217.423 121.571 218.074 120.445C218.253 120.131 219.038 118.904 220.432 116.765C222.206 113.771 223.969 110.811 225.721 107.884C226.305 106.872 228.057 103.675 230.978 98.2939C232.01 96.4028 232.83 94.9182 233.437 93.8369C234.155 92.5537 234.84 91.2254 235.492 89.8521C235.984 88.8383 236.61 88.3321 237.371 88.3321Z" fill="black"/>
<path d="M233.519 128.446C234.015 128.446 234.431 128.672 234.769 129.119C234.995 129.411 235.108 129.78 235.108 130.228C235.108 131.282 234.814 132.392 234.229 133.557C233.62 134.789 232.82 135.405 231.829 135.405C230.793 135.405 230.274 134.822 230.274 133.657C230.274 132.491 230.635 131.304 231.356 130.093C232.009 128.996 232.73 128.446 233.519 128.446ZM255.416 88.3321C255.907 88.3321 256.287 88.5347 256.556 88.94C256.779 89.2777 256.891 89.6604 256.891 90.0881C256.891 91.0112 256.22 92.7447 254.879 95.288C249.356 105.667 244.372 114.333 239.928 121.289C239.209 122.438 238.76 123.203 238.581 123.586C237.997 124.689 237.389 125.24 236.76 125.24C236.31 125.24 235.917 124.981 235.581 124.463C235.288 124.037 235.142 123.575 235.142 123.079C235.142 122.45 235.468 121.571 236.119 120.445C236.298 120.131 237.083 118.904 238.477 116.765C240.251 113.771 242.014 110.811 243.766 107.884C244.35 106.872 246.101 103.675 249.022 98.2939C250.055 96.4028 250.875 94.9182 251.482 93.8369C252.2 92.5537 252.885 91.2254 253.537 89.8521C254.029 88.8383 254.656 88.3321 255.416 88.3321Z" fill="black"/>
<path d="M32.3848 190.265C32.3848 190.265 32.5427 190.131 32.8483 189.871C33.0015 189.742 33.1914 189.58 33.4168 189.389C33.6462 189.202 33.9123 188.985 34.2139 188.739C35.4242 187.763 37.2282 186.366 39.5978 184.686C41.964 183.002 44.8918 181.032 48.3282 178.894C48.7577 178.626 49.1941 178.355 49.6379 178.079C50.0845 177.81 50.5385 177.535 50.9987 177.258C51.917 176.698 52.8734 176.144 53.851 175.565C55.8142 174.425 57.8952 173.252 60.0865 172.066C62.2736 170.87 64.5841 169.686 66.9816 168.47C68.1858 167.873 69.4077 167.261 70.663 166.668C71.2893 166.369 71.921 166.067 72.5568 165.764C73.196 165.468 73.8393 165.169 74.4873 164.868C75.134 164.564 75.7903 164.268 76.4512 163.974C77.1129 163.68 77.7794 163.384 78.4492 163.085C79.7971 162.508 81.1551 161.906 82.5445 161.336C83.2381 161.048 83.9345 160.758 84.6357 160.466C85.3402 160.185 86.0489 159.903 86.7609 159.618C87.4716 159.331 88.1912 159.057 88.9134 158.781C89.6363 158.505 90.36 158.222 91.0917 157.95C91.8242 157.68 92.5594 157.409 93.298 157.137C94.0352 156.861 94.7806 156.601 95.5301 156.341C96.2796 156.082 97.0291 155.814 97.7861 155.56C98.5437 155.307 99.3041 155.054 100.067 154.801C100.828 154.542 101.597 154.303 102.369 154.058C103.141 153.817 103.911 153.564 104.689 153.33C106.248 152.866 107.811 152.389 109.395 151.956C112.552 151.057 115.764 150.251 119 149.493C120.623 149.133 122.245 148.753 123.882 148.433L125.108 148.184C125.516 148.101 125.925 148.016 126.336 147.944L128.799 147.489C129.618 147.331 130.445 147.207 131.269 147.071L132.505 146.87C132.917 146.804 133.328 146.732 133.742 146.677C135.394 146.443 137.043 146.192 138.698 146.008C139.525 145.911 140.349 145.803 141.176 145.716C142.003 145.636 142.829 145.555 143.654 145.475C144.066 145.436 144.477 145.391 144.89 145.359C145.302 145.327 145.715 145.297 146.127 145.265C146.951 145.204 147.774 145.144 148.594 145.083C151.882 144.905 155.148 144.764 158.378 144.794C159.993 144.776 161.597 144.833 163.191 144.87C163.987 144.88 164.78 144.935 165.571 144.975C166.36 145.02 167.147 145.056 167.931 145.107C174.194 145.541 180.219 146.389 185.848 147.573C186.2 147.645 186.551 147.718 186.901 147.79C187.25 147.866 187.595 147.954 187.94 148.034C188.63 148.199 189.315 148.362 189.994 148.525C190.333 148.609 190.673 148.68 191.007 148.773C191.342 148.865 191.675 148.955 192.007 149.045C192.67 149.228 193.327 149.408 193.98 149.588C194.634 149.758 195.27 149.972 195.906 150.166C196.54 150.364 197.169 150.56 197.791 150.754C198.417 150.939 199.022 151.167 199.628 151.374C200.231 151.586 200.828 151.795 201.42 152.003C201.568 152.055 201.715 152.107 201.862 152.159L202.082 152.237L202.299 152.321C202.587 152.435 202.875 152.546 203.161 152.658C203.732 152.882 204.296 153.103 204.854 153.321C205.133 153.431 205.41 153.539 205.686 153.648C205.961 153.758 206.229 153.88 206.498 153.994C207.035 154.227 207.565 154.457 208.088 154.685C208.349 154.799 208.609 154.912 208.867 155.025C208.995 155.081 209.124 155.138 209.252 155.194L209.444 155.277L209.632 155.367C210.133 155.606 210.628 155.843 211.114 156.076C212.086 156.548 213.041 156.978 213.932 157.469C214.829 157.943 215.698 158.401 216.536 158.845C217.363 159.309 218.151 159.772 218.911 160.211C219.29 160.431 219.662 160.646 220.025 160.857C220.209 160.96 220.382 161.076 220.556 161.184C220.73 161.294 220.902 161.402 221.072 161.509C221.751 161.939 222.398 162.349 223.012 162.738C223.631 163.118 224.192 163.517 224.726 163.883C225.258 164.251 225.756 164.596 226.22 164.917C227.157 165.544 227.909 166.143 228.532 166.606C229.769 167.545 230.429 168.046 230.429 168.046C230.429 168.046 229.722 167.615 228.397 166.807C228.067 166.604 227.698 166.378 227.292 166.129C226.891 165.874 226.436 165.623 225.947 165.344C225.459 165.067 224.935 164.769 224.376 164.451C223.818 164.133 223.231 163.785 222.587 163.459C221.948 163.123 221.276 162.77 220.571 162.398C220.395 162.306 220.217 162.211 220.037 162.116C219.856 162.022 219.678 161.92 219.489 161.833C219.114 161.652 218.731 161.467 218.34 161.278C217.559 160.901 216.746 160.509 215.903 160.101C215.047 159.722 214.161 159.33 213.246 158.924C209.569 157.343 205.354 155.726 200.658 154.293C200.069 154.12 199.474 153.945 198.874 153.769C198.273 153.595 197.672 153.401 197.051 153.249C196.434 153.089 195.811 152.926 195.182 152.763C194.552 152.603 193.922 152.424 193.275 152.289C192.631 152.143 191.981 151.995 191.326 151.846C190.999 151.771 190.671 151.696 190.341 151.62C190.012 151.543 189.676 151.486 189.342 151.418C188.673 151.287 187.999 151.155 187.32 151.022C186.98 150.957 186.641 150.885 186.298 150.825C185.954 150.768 185.609 150.711 185.262 150.655C179.731 149.705 173.84 149.073 167.729 148.797C166.964 148.768 166.196 148.752 165.426 148.729C165.04 148.718 164.654 148.707 164.268 148.695C163.881 148.679 163.493 148.679 163.105 148.677C161.551 148.671 159.987 148.644 158.412 148.691C157.625 148.708 156.835 148.714 156.044 148.742C155.252 148.776 154.459 148.811 153.663 148.845C153.266 148.861 152.867 148.878 152.469 148.895C152.07 148.921 151.671 148.946 151.272 148.971C150.473 149.022 149.673 149.073 148.871 149.124C145.667 149.387 142.438 149.681 139.21 150.112C137.593 150.3 135.982 150.559 134.364 150.787C133.96 150.842 133.558 150.913 133.154 150.979L131.945 151.178C131.139 151.313 130.33 151.437 129.527 151.591L127.113 152.031C126.71 152.101 126.309 152.184 125.908 152.265L124.706 152.507C123.101 152.818 121.508 153.177 119.914 153.523C119.515 153.607 119.119 153.702 118.723 153.796C118.326 153.889 117.93 153.983 117.534 154.076C116.742 154.264 115.949 154.44 115.163 154.644C114.375 154.841 113.59 155.039 112.805 155.236C112.412 155.332 112.022 155.44 111.631 155.544C111.241 155.648 110.851 155.752 110.461 155.856C108.9 156.26 107.358 156.713 105.817 157.143C105.047 157.36 104.285 157.594 103.521 157.818C102.759 158.044 101.996 158.266 101.243 158.506C100.487 158.742 99.7343 158.977 98.9841 159.212C98.234 159.448 97.4913 159.699 96.7486 159.94C95.2612 160.419 93.7949 160.926 92.3368 161.418C89.4308 162.432 86.5833 163.462 83.814 164.521C82.4247 165.039 81.0646 165.588 79.714 166.114C79.0421 166.387 78.375 166.657 77.712 166.926C77.3798 167.06 77.0489 167.194 76.7195 167.327C76.3893 167.459 76.0632 167.598 75.7372 167.733C70.5159 169.897 65.6331 172.083 61.1756 174.211C56.7121 176.329 52.6753 178.39 49.1308 180.283C48.241 180.75 47.3915 181.223 46.5658 181.67C45.7448 182.127 44.9538 182.567 44.1934 182.989C42.6795 183.847 41.2955 184.647 40.0546 185.386C39.7442 185.571 39.4426 185.751 39.1485 185.925C38.8572 186.103 38.574 186.276 38.2996 186.444C38.0246 186.611 37.7585 186.773 37.5011 186.93C37.2459 187.091 36.9988 187.245 36.7612 187.394C36.5229 187.544 36.2942 187.687 36.0743 187.825C35.8565 187.965 35.6468 188.1 35.4474 188.229C35.0471 188.487 34.6809 188.718 34.3609 188.935C34.0383 189.149 33.7524 189.338 33.5066 189.502C33.2622 189.669 33.0573 189.81 32.8912 189.924C32.5556 190.148 32.3848 190.265 32.3848 190.265Z" fill="#939598"/>
<path d="M29.2666 187.14C29.2666 187.14 29.4245 187.005 29.7302 186.746C29.8833 186.616 30.0733 186.455 30.2986 186.264C30.528 186.077 30.7942 185.859 31.0957 185.614C32.3061 184.638 34.11 183.241 36.4796 181.561C38.8459 179.877 41.7737 177.907 45.21 175.768C45.6396 175.501 46.0759 175.23 46.5197 174.954C46.9663 174.684 47.4204 174.41 47.8805 174.133C48.7988 173.572 49.7553 173.018 50.7328 172.441C52.696 171.3 54.777 170.128 56.9683 168.942C59.1555 167.746 61.4659 166.561 63.8634 165.346C65.0676 164.749 66.2896 164.136 67.5448 163.543C68.1711 163.244 68.8028 162.943 69.4386 162.64C70.0778 162.343 70.7211 162.044 71.3692 161.743C72.0159 161.44 72.6721 161.144 73.3331 160.849C73.9948 160.555 74.6612 160.259 75.331 159.961C76.6789 159.383 78.0369 158.781 79.4256 158.211C80.1193 157.923 80.8157 157.633 81.5168 157.342C82.2214 157.061 82.93 156.778 83.6421 156.494C84.3528 156.207 85.0723 155.932 85.7946 155.656C86.5175 155.38 87.2411 155.098 87.9729 154.825C88.7054 154.556 89.4406 154.285 90.1791 154.013C90.9157 153.736 91.6618 153.476 92.4113 153.216C93.1608 152.957 93.9102 152.689 94.6672 152.435C95.4249 152.182 96.1852 151.929 96.9477 151.675C97.7087 151.417 98.4786 151.178 99.2499 150.933C100.021 150.692 100.792 150.438 101.571 150.204C103.129 149.741 104.692 149.264 106.276 148.83C109.433 147.931 112.645 147.126 115.881 146.368C117.504 146.007 119.125 145.627 120.763 145.308L121.989 145.059C122.397 144.976 122.806 144.891 123.217 144.818L125.68 144.364C126.5 144.206 127.326 144.082 128.15 143.946L129.386 143.745C129.798 143.678 130.209 143.607 130.623 143.551C132.276 143.319 133.924 143.067 135.579 142.883C136.406 142.786 137.231 142.678 138.056 142.591C138.883 142.51 139.709 142.43 140.534 142.349C140.947 142.311 141.358 142.265 141.77 142.233C142.183 142.202 142.595 142.171 143.007 142.14C143.831 142.079 144.653 142.019 145.474 141.958C148.763 141.78 152.028 141.639 155.258 141.669C156.873 141.651 158.478 141.708 160.071 141.745C160.868 141.755 161.661 141.81 162.451 141.849C163.241 141.894 164.028 141.93 164.811 141.981C171.075 142.415 177.099 143.263 182.729 144.447C183.081 144.52 183.432 144.593 183.781 144.664C184.13 144.741 184.475 144.828 184.821 144.908C185.51 145.073 186.195 145.237 186.874 145.399C187.213 145.483 187.554 145.554 187.888 145.647C188.222 145.739 188.556 145.829 188.887 145.919C189.55 146.102 190.208 146.282 190.86 146.462C191.514 146.632 192.151 146.846 192.786 147.04C193.42 147.238 194.049 147.434 194.671 147.628C195.297 147.813 195.902 148.041 196.507 148.248C197.111 148.459 197.708 148.669 198.3 148.877C198.447 148.929 198.595 148.981 198.742 149.033L198.961 149.111L199.179 149.195C199.467 149.309 199.755 149.421 200.04 149.532C200.611 149.756 201.176 149.977 201.734 150.196C202.013 150.305 202.29 150.413 202.566 150.522C202.841 150.632 203.109 150.754 203.378 150.868C203.914 151.102 204.445 151.331 204.968 151.559C205.229 151.673 205.488 151.786 205.746 151.899C205.875 151.955 206.004 152.012 206.132 152.068L206.324 152.151L206.512 152.242C207.013 152.481 207.507 152.718 207.994 152.951C208.965 153.422 209.921 153.853 210.812 154.343C211.709 154.818 212.577 155.276 213.416 155.719C214.243 156.183 215.031 156.646 215.79 157.085C216.17 157.305 216.541 157.521 216.905 157.732C217.088 157.834 217.261 157.951 217.436 158.059C217.61 158.169 217.782 158.277 217.952 158.384C218.631 158.814 219.278 159.224 219.892 159.613C220.511 159.993 221.072 160.392 221.606 160.758C222.138 161.126 222.636 161.471 223.1 161.792C224.037 162.419 224.788 163.018 225.412 163.481C226.649 164.42 227.308 164.921 227.308 164.921C227.308 164.921 226.602 164.489 225.276 163.682C224.946 163.479 224.577 163.253 224.172 163.004C223.771 162.748 223.315 162.497 222.827 162.218C222.339 161.941 221.815 161.643 221.256 161.325C220.698 161.007 220.11 160.659 219.466 160.333C218.828 159.997 218.156 159.644 217.451 159.272C217.275 159.18 217.097 159.086 216.917 158.99C216.736 158.897 216.558 158.795 216.368 158.707C215.993 158.526 215.611 158.341 215.219 158.152C214.439 157.775 213.626 157.383 212.783 156.975C211.927 156.596 211.041 156.204 210.125 155.798C206.448 154.217 202.234 152.6 197.538 151.167C196.949 150.994 196.355 150.819 195.754 150.643C195.153 150.469 194.552 150.275 193.931 150.124C193.313 149.964 192.691 149.801 192.062 149.638C191.432 149.478 190.802 149.299 190.155 149.163C189.511 149.017 188.861 148.869 188.206 148.721C187.879 148.646 187.55 148.57 187.221 148.495C186.891 148.418 186.556 148.361 186.222 148.293C185.553 148.162 184.879 148.03 184.2 147.896C183.86 147.832 183.52 147.76 183.177 147.699C182.834 147.643 182.488 147.587 182.142 147.529C176.611 146.58 170.72 145.948 164.608 145.672C163.844 145.643 163.076 145.627 162.305 145.604C161.92 145.593 161.534 145.582 161.147 145.571C160.761 145.554 160.373 145.554 159.985 145.552C158.431 145.546 156.866 145.519 155.292 145.566C154.505 145.584 153.715 145.59 152.924 145.617C152.132 145.651 151.339 145.686 150.543 145.72C150.145 145.737 149.747 145.754 149.348 145.771C148.95 145.796 148.551 145.822 148.152 145.847C147.353 145.898 146.553 145.949 145.751 146.001C142.546 146.263 139.318 146.557 136.09 146.988C134.473 147.176 132.862 147.435 131.244 147.663C130.84 147.718 130.438 147.789 130.034 147.855L128.824 148.054C128.018 148.189 127.21 148.313 126.406 148.467L123.992 148.907C123.589 148.977 123.189 149.06 122.788 149.141L121.586 149.383C119.981 149.694 118.387 150.053 116.794 150.399C116.395 150.483 115.999 150.578 115.602 150.672C115.206 150.765 114.809 150.859 114.414 150.951C113.622 151.139 112.828 151.315 112.043 151.519C111.255 151.717 110.47 151.915 109.685 152.112C109.291 152.207 108.902 152.316 108.511 152.42C108.121 152.523 107.731 152.628 107.341 152.731C105.779 153.135 104.238 153.589 102.697 154.019C101.927 154.235 101.165 154.47 100.401 154.693C99.6386 154.92 98.8762 155.141 98.1226 155.382C97.367 155.618 96.6141 155.852 95.8639 156.087C95.1138 156.324 94.3711 156.574 93.6284 156.816C92.141 157.294 90.6747 157.802 89.2166 158.293C86.3106 159.307 83.4631 160.338 80.6938 161.397C79.3045 161.914 77.9444 162.464 76.5938 162.99C75.9219 163.262 75.2548 163.533 74.5918 163.802C74.2596 163.935 73.9287 164.069 73.5993 164.202C73.2691 164.335 72.943 164.474 72.617 164.609C67.3957 166.773 62.5129 168.959 58.0554 171.086C53.5919 173.204 49.5551 175.265 46.0106 177.158C45.1208 177.625 44.2713 178.098 43.4456 178.546C42.6246 179.002 41.8336 179.442 41.0732 179.865C39.5593 180.722 38.1753 181.522 36.9344 182.261C36.6239 182.446 36.3224 182.626 36.0283 182.801C35.737 182.979 35.4538 183.151 35.1794 183.319C34.9044 183.487 34.6383 183.649 34.3809 183.806C34.1257 183.966 33.8786 184.12 33.641 184.27C33.4027 184.419 33.174 184.562 32.9541 184.7C32.7363 184.841 32.5266 184.976 32.3272 185.105C31.9269 185.362 31.5607 185.594 31.2407 185.811C30.9181 186.025 30.6321 186.214 30.3864 186.378C30.142 186.545 29.9371 186.685 29.7717 186.799C29.4375 187.023 29.2666 187.14 29.2666 187.14Z" fill="black"/>
<path d="M161.168 161.615C161.168 163.802 159.399 165.575 157.216 165.575C155.034 165.575 153.265 163.802 153.265 161.615C153.265 159.428 155.034 157.655 157.216 157.655C159.399 157.655 161.168 159.428 161.168 161.615Z" fill="#939598"/>
<path d="M159.089 159.532C159.089 161.72 157.32 163.493 155.137 163.493C152.955 163.493 151.186 161.72 151.186 159.532C151.186 157.345 152.955 155.572 155.137 155.572C157.32 155.572 159.089 157.345 159.089 159.532Z" fill="black"/>
<path d="M174.867 161.615C174.867 163.802 173.098 165.575 170.916 165.575C168.733 165.575 166.964 163.802 166.964 161.615C166.964 159.428 168.733 157.655 170.916 157.655C173.098 157.655 174.867 159.428 174.867 161.615Z" fill="#939598"/>
<path d="M172.789 159.532C172.789 161.72 171.02 163.493 168.837 163.493C166.655 163.493 164.886 161.72 164.886 159.532C164.886 157.345 166.655 155.572 168.837 155.572C171.02 155.572 172.789 157.345 172.789 159.532Z" fill="black"/>
</g>
<defs>
<clipPath id="clip0_112_474">
<rect width="260" height="190.265" fill="white"/>
</clipPath>
</defs>
</svg>
